# xmcd
#
# Track frame offsets: 
#        150
#        22500
#        39074
#        70804
#        87303
#        108696
#        132610
#        152481
#        169161
#        192840
#        210272
#        237752
#        294720
#        325450
#
# Disc length: 4590 seconds
#
# Revision: 0
# Processed by: cddbd v1.5.2PL0 Copyright (c) Steve Scherf et al.
# Submitted via: ExactAudioCopyFreeDBPlugin 1.0
#
DISCID=b811ec0e
DTITLE=The Moody Blues - Timeless Flight [CD8]
DYEAR=2013
DGENRE=Progressive Rock
TTITLE0=Steppin' in a Slide Zone (Live at The Coliseum, Seattle, 1979)
TTITLE1=Twilight Time (Live at The Coliseum, Seattle, 1979)
TTITLE2=The Day We Meet Again (Live at The Coliseum, Seattle, 1979)
TTITLE3=The Story In Your Eyes (Live at The Coliseum, Seattle, 1979)
TTITLE4=I'm Your Man (Live at The Coliseum, Seattle, 1979)
TTITLE5=Driftwood (Live at The Coliseum, Seattle, 1979)
TTITLE6=I'll Be Level With You (Live at The Coliseum, Seattle, 1979)
TTITLE7=Gypsy (Live at The Coliseum, Seattle, 1979)
TTITLE8=Survival (Live at The Coliseum, Seattle, 1979)
TTITLE9=The Balance (Live at The Coliseum, Seattle, 1979)
TTITLE10=Nights in White Satin (Live at The Coliseum, Seattle, 1979)
TTITLE11=Legend of a Mind (Live at The Coliseum, Seattle, 1979)
TTITLE12=Question (Live at The Coliseum, Seattle, 1979)
TTITLE13=Ride My See Saw (Live at The Coliseum, Seattle, 1979)
EXTD=
EXTT0=
EXTT1=
EXTT2=
EXTT3=
EXTT4=
EXTT5=
EXTT6=
EXTT7=
EXTT8=
EXTT9=
EXTT10=
EXTT11=
EXTT12=
EXTT13=
PLAYORDER=
